<svg xmlns="http://www.w3.org/2000/svg" viewBox="0 0 25.9 27">
  <path fill="#ffa5bf" d="M15.4 11.9c.1 0 .1-.1 0 0 .1-.1.2-.1.2-.1.1-.1.3-.1.4-.1s.3-.1.4-.1c.2-.1.4-.1.6-.1l1.5-.3c.9-.2 1.7-.3 2.6-.5 1.4-.3 2.9-.5 4.3-.8.1 0 .2 0 .3.1.1.1.2.2.2.3.1.2-.1.5-.3.5-.9.2-1.8.4-2.7.5-.9.2-1.8.3-2.7.5-.7.1-1.4.2-2.1.4-.3.1-.7.1-1 .2-.3.1-.7.2-1.1.2h-.1c-.2.2-.5.1-.6 0l-.1-.1c.1-.3.1-.5.2-.6zM13.8 10.9v-.2-.1c0-.1.1-.2.1-.3 0-.1 0-.1.1-.2 0-.1.1-.2.1-.3.1-.2.1-.3.2-.4.1-.2.1-.3.2-.5.3-.7.6-1.3.8-2 .6-1.3 1.2-2.5 1.8-3.8.4-.9.9-1.9 1.4-2.8.1-.1.1-.2.2-.2h.3c.2.1.3.4.2.6-.7 1.3-1.3 2.7-2 4l-1.8 3.6c-.2.4-.4.9-.7 1.3l-.3.6-.3.6s0 .1-.1.1l-.1.1-.1-.1zM6.8 3.5c0-.1.1-.2.2-.3.2-.1.5 0 .6.2.2.4.4.8.7 1.2.3.4.5.8.7 1.2l1.2 2.4c.3.5.6 1.1.8 1.6.1.3.2.5.4.8.1.2.2.5.3.7v.1c.1.2.1.3 0 .5s-.3.2-.5.2-.3-.2-.4-.3c-.1-.1-.1-.2-.1-.3-.1-.1-.1-.2-.2-.4l-.3-.6C9.9 9.6 9.5 8.8 9 8c-.4-.9-.8-1.6-1.2-2.4-.3-.6-.6-1.2-.9-1.7-.1-.2-.1-.3-.1-.4zM0 15.2c0-.1.2-.2.3-.2h.2c.1 0 .2 0 .4-.1.2 0 .4-.1.7-.1.4-.1.8-.1 1.1-.2.8-.1 1.6-.2 2.4-.4 1.6-.2 3.2-.5 4.8-.8l1.8-.3c.2 0 .5.2.5.4 0 .1 0 .2-.1.3-.1.1-.2.2-.3.2-1.6.2-3.3.5-4.9.8l-2.4.3c-.8.1-1.6.2-2.5.3-.3 0-.6.1-.9.1H.3c-.1 0-.2-.1-.2-.2-.1.1-.1 0-.1-.1zM16.6 21.2c-.4-.8-.7-1.6-1.1-2.4-.1-.3-.2-.6-.3-.8-.1-.2-.1-.3-.2-.5 0-.1-.1-.2-.1-.4-.1-.2-.1-.4-.2-.6-.1-.2-.1-.3-.1-.5s-.1-.3-.1-.5c0-.1-.1-.2-.1-.4s.1-.4.3-.4c.2 0 .3.1.4.3.6 1.6 1.2 3.2 2 4.7.3.7.6 1.3.9 2 .1.2.2.3.2.5v-.1c0 .1.1.2.1.2 0 .1.1.2.1.3.1.1.1.2.2.4l.3.6c.1.3.2.5.4.8v-.1l.6 1.2.3.6c.1.1.1.2 0 .3s-.1.2-.2.3c-.2.1-.5 0-.6-.2-.4-.8-.8-1.6-1.2-2.5v-.1s-.1-.1-.1-.2v-.1c-.1-.2-.2-.3-.2-.5-.1-.3-.2-.6-.4-.8-.4 0-.6-.5-.9-1.1z"/>
</svg>
