<svg width="64" height="4" viewBox="0 0 64 4" fill="none" xmlns="http://www.w3.org/2000/svg">
<path d="M63.45 2.85299L63.4781 2.62869C63.1136 2.62869 63.3099 2.4885 63.0014 2.46047C62.9734 2.40439 62.637 2.37635 62.5248 2.34832C61.8799 2.29224 60.7865 2.29224 60.422 2.18009C58.5154 2.09598 57.0014 1.92775 55.235 1.84364C55.179 1.73149 54.422 1.78757 54.1135 1.73149C53.1883 1.67541 52.2631 1.64738 51.3659 1.5913V1.53523L50.3845 1.47915L49.5154 1.42308C49.1229 1.39504 48.7584 1.39504 48.3658 1.367C47.4406 1.31093 46.5154 1.28289 45.5901 1.22681L41.5247 1.05859L39.0854 0.946438C38.3284 0.918401 37.5714 0.890363 36.8144 0.862326L35.6648 0.806251H35.4966L33.534 0.750176H33.3657C32.5527 0.834288 31.0386 0.6941 29.9452 0.6941L27.8423 0.638025L25.4031 0.58195L24.1134 0.553913H23.9451H23.6087L20.5245 0.4698C20.4124 0.4698 20.3002 0.4698 20.1881 0.4698L18.5619 0.441762V0.497838L16.9357 0.4698H16.2909L14.6647 0.441762L12.2254 0.413725V0.4698H11.889H11.7208L9.44971 0.441762H8.97307H8.63662L7.26278 0.301575V0.35765C6.92633 0.35765 6.61792 0.35765 6.28147 0.35765C5.88894 0.385687 5.10389 0.273537 4.99174 0.385687C4.43099 0.329612 4.37491 0.441762 3.8422 0.413725C3.58986 0.413725 3.25341 0.385687 3.19734 0.4698C2.77677 0.497838 2.10387 0.4698 1.87957 0.58195H1.73938C1.48705 0.609988 1.48705 0.722138 1.06648 0.722138C1.17863 0.946439 0.98237 1.08663 0.589844 1.1427C0.730032 1.1427 0.786107 1.17074 0.758069 1.22681V1.42308C0.954332 1.42308 1.15059 1.45111 1.09452 1.50719C1.93565 1.47915 2.38425 1.47915 3.19734 1.50719C3.3936 1.50719 3.64594 1.50719 3.67397 1.45111C4.26276 1.47915 4.37491 1.367 4.9637 1.42308H6.11324V1.367L6.75811 1.42308V1.367C7.51512 1.367 8.27213 1.39504 9.02915 1.39504H9.19737L11.8049 1.45111V1.39504L13.9077 1.42308L16.347 1.45111H16.5152L17.6647 1.47915V1.42308L19.4591 1.45111L21.2535 1.47915H21.7302C22.0947 1.47915 22.4872 1.50719 22.8797 1.50719V1.45111L26.6087 1.56326C27.7863 1.5913 28.9919 1.64738 30.1695 1.67542L32.1041 1.73149L37.7957 1.98383L42.1695 2.15205V2.20813L44.4406 2.29224L46.235 2.37635C47.8051 2.4885 49.7958 2.4885 51.1135 2.65673C51.9827 2.74084 53.2724 2.7128 53.8612 2.85299C54.3098 2.90907 55.1509 2.85299 55.3192 2.96514L55.964 2.99318H56.1322L56.4687 3.02122C56.8051 3.16141 57.8145 3.10533 58.4033 3.18944C59.1603 3.18944 59.5248 3.30159 60.1977 3.32963L61.8239 3.41374C62.1603 3.38571 62.5248 3.32963 62.8052 3.27356C63.3379 3.30159 63.8426 3.10533 63.45 2.85299Z" fill="#003333"/>
</svg>
