<svg width="27" height="28" viewBox="0 0 27 28" fill="none" xmlns="http://www.w3.org/2000/svg">
<path d="M16.0556 12.5493C16.0865 12.5183 16.0865 12.4873 16.1175 12.4873C16.1485 12.4564 16.2105 12.4254 16.2414 12.4254C16.3654 12.3634 16.5203 12.3324 16.6442 12.3015C16.7681 12.2705 16.923 12.2395 17.0469 12.2085C17.2638 12.1466 17.4496 12.1156 17.6665 12.0846C18.1622 11.9917 18.6888 11.8987 19.1845 11.7748C20.0519 11.6199 20.8884 11.465 21.7558 11.2791C23.1808 11.0003 24.6369 10.7835 26.0619 10.5046C26.1859 10.4737 26.2788 10.5046 26.3717 10.5666C26.4647 10.6286 26.5266 10.7215 26.5576 10.8454C26.6196 11.0623 26.4647 11.3101 26.2478 11.3411C25.3494 11.527 24.42 11.7128 23.5216 11.8677C22.6232 12.0536 21.7558 12.2085 20.8574 12.3944C20.1449 12.5183 19.4633 12.6422 18.7508 12.7971C18.41 12.8591 18.1002 12.921 17.7594 12.983C17.4187 13.045 17.0469 13.1379 16.7061 13.2308C16.6751 13.2308 16.6751 13.2308 16.6442 13.2618C16.4583 13.4167 16.1795 13.3857 16.0246 13.2308C15.9936 13.1999 15.9626 13.1379 15.9316 13.1069C15.9316 12.8901 15.9626 12.7042 16.0556 12.5493Z" fill="#003333"/>
<path d="M14.4756 11.5578C14.4446 11.4959 14.4446 11.4339 14.4446 11.341C14.4446 11.31 14.4446 11.248 14.4756 11.217C14.5065 11.1241 14.5375 11.0002 14.5375 10.9073C14.5375 10.8453 14.5685 10.7833 14.5995 10.7214C14.6305 10.5975 14.6924 10.5045 14.7234 10.3806C14.7854 10.2257 14.8473 10.1018 14.9093 9.9469C14.9712 9.79201 15.0332 9.63711 15.0952 9.48221C15.374 8.83165 15.6528 8.18109 15.9316 7.53053C16.5202 6.26039 17.1088 4.99024 17.6974 3.7201C18.1312 2.79072 18.5959 1.86135 19.0606 0.931975C19.1225 0.808059 19.1845 0.7461 19.3084 0.684142C19.4323 0.653163 19.5562 0.653163 19.6492 0.684142C19.866 0.77708 19.9899 1.05589 19.897 1.30372C19.2464 2.63583 18.5649 3.96793 17.9143 5.33101C17.3257 6.5392 16.7061 7.74738 16.0865 8.95557C15.8696 9.38928 15.6528 9.85396 15.405 10.2877C15.312 10.4735 15.2191 10.6594 15.1261 10.8453C15.0332 11.0622 14.9093 11.248 14.8163 11.4649C14.7854 11.4959 14.7854 11.5268 14.7544 11.5578C14.7544 11.5578 14.7544 11.5888 14.7234 11.5888C14.6924 11.6198 14.6614 11.6508 14.5995 11.6508C14.5685 11.6817 14.5065 11.6508 14.4756 11.5578Z" fill="#003333"/>
<path d="M7.47431 4.15388C7.50529 4.02997 7.59823 3.93703 7.69117 3.87507C7.90802 3.75116 8.18684 3.8441 8.31075 4.06095C8.52761 4.46367 8.74447 4.8664 8.96132 5.30011C9.17818 5.70283 9.39503 6.10556 9.58091 6.50828C9.98364 7.31374 10.4174 8.08821 10.8201 8.89366C11.0989 9.4203 11.3777 9.97792 11.6565 10.5046C11.7804 10.7834 11.9044 11.0312 12.0283 11.31C12.1212 11.5269 12.2142 11.7747 12.3071 11.9916C12.3071 11.9916 12.3381 12.0225 12.3381 12.0535C12.462 12.2084 12.462 12.3943 12.3691 12.5492C12.2761 12.7041 12.0902 12.797 11.9044 12.766C11.7185 12.7351 11.5636 12.6111 11.5326 12.4253C11.4707 12.3013 11.4397 12.2084 11.4087 12.0845C11.3467 11.9606 11.2848 11.8367 11.2538 11.7127C11.1609 11.4959 11.0679 11.31 10.975 11.0932C10.5723 10.2567 10.1076 9.4203 9.67385 8.61485C9.24014 7.8094 8.8374 7.03493 8.40369 6.22947C8.0939 5.67185 7.81508 5.08325 7.53627 4.52563C7.47431 4.40172 7.44333 4.2778 7.47431 4.15388Z" fill="#003333"/>
<path d="M0.627686 15.8641C0.658665 15.7402 0.782583 15.6473 0.937481 15.6473C0.99944 15.6473 1.0614 15.6163 1.12336 15.6163C1.24728 15.5853 1.37119 15.5853 1.49511 15.5543C1.71197 15.5233 1.92883 15.4924 2.14568 15.4614C2.51744 15.3994 2.92017 15.3375 3.29192 15.2755C4.09739 15.1516 4.93384 15.0277 5.73931 14.9037C7.31926 14.6559 8.93019 14.4081 10.5102 14.1293C11.0988 14.0363 11.6874 13.9434 12.276 13.8504C12.5238 13.8195 12.7717 14.0363 12.7717 14.2532C12.7717 14.3771 12.7407 14.501 12.6787 14.594C12.5858 14.6869 12.4928 14.7489 12.3689 14.7798C10.758 15.0277 9.11607 15.3065 7.50514 15.5543C6.69967 15.6782 5.8942 15.8022 5.08874 15.8951C4.25229 15.988 3.44682 16.081 2.61037 16.1739C2.30058 16.2049 1.99078 16.2359 1.68099 16.2668C1.52609 16.2668 1.40217 16.2978 1.24728 16.2978C1.18532 16.2978 1.12336 16.2978 1.0614 16.2978C0.96846 16.2978 0.906501 16.2978 0.813563 16.2668C0.720624 16.2359 0.658665 16.1739 0.627686 16.1119C0.627686 16.019 0.627686 15.9261 0.627686 15.8641Z" fill="#003333"/>
<path d="M17.2328 21.9052C16.8611 21.0997 16.5203 20.2942 16.1795 19.4888C16.0556 19.2099 15.9627 18.9311 15.8388 18.6523C15.7768 18.4974 15.7148 18.3115 15.6529 18.1566C15.6219 18.0327 15.5599 17.9088 15.529 17.7849C15.467 17.599 15.405 17.3821 15.3121 17.1963C15.2501 17.0414 15.2192 16.8865 15.1882 16.7316C15.1572 16.5767 15.0952 16.4218 15.0643 16.2669C15.0333 16.1429 15.0023 16.019 15.0023 15.8951C14.9713 15.7092 15.0952 15.5233 15.2811 15.4924C15.467 15.4614 15.6219 15.6163 15.6529 15.7712C16.2105 17.3821 16.8921 18.9621 17.6046 20.5111C17.8834 21.1617 18.1932 21.8123 18.503 22.4628C18.5959 22.6487 18.6579 22.8036 18.7508 22.9895C18.7508 22.9585 18.7199 22.9585 18.7199 22.9275C18.7508 22.9895 18.7818 23.0824 18.8128 23.1444C18.8438 23.2373 18.9057 23.3303 18.9367 23.4542C18.9987 23.5781 19.0606 23.702 19.1226 23.8569C19.1226 23.8569 19.1226 23.8569 19.1226 23.8259C19.2155 24.0428 19.3085 24.2287 19.4014 24.4455C19.4014 24.4455 19.4014 24.4765 19.4324 24.4765C19.5563 24.7553 19.6802 25.0032 19.8042 25.282C19.8042 25.251 19.7732 25.251 19.7732 25.22C19.959 25.6228 20.1449 25.9945 20.3308 26.3973C20.4237 26.5831 20.5167 26.8 20.6096 26.9859C20.6716 27.1098 20.6716 27.2027 20.6406 27.3267C20.6096 27.4506 20.5167 27.5435 20.4237 27.6055C20.2069 27.7294 19.9281 27.6365 19.8042 27.4196C19.4014 26.6141 18.9987 25.7777 18.6269 24.9412C18.6269 24.9722 18.6579 24.9722 18.6579 25.0032C18.6579 25.0032 18.6579 25.0032 18.6579 24.9722C18.6579 24.9412 18.6269 24.9412 18.6269 24.9102C18.6269 24.8793 18.5959 24.8793 18.5959 24.8483C18.565 24.8173 18.534 24.7553 18.534 24.6934C18.534 24.6624 18.534 24.6624 18.503 24.6314V24.6624C18.441 24.5075 18.3481 24.3526 18.2861 24.1977C18.2861 24.1977 18.2861 24.1977 18.2861 24.2287C18.1622 23.9499 18.0383 23.671 17.9144 23.4232C17.6975 22.9275 17.4807 22.4319 17.2328 21.9052Z" fill="#003333"/>
</svg>
