<svg width="57" height="68" viewBox="0 0 57 68" fill="none" xmlns="http://www.w3.org/2000/svg">
<path d="M31.5256 66.918L55.9209 42.5232C56.6173 41.8268 56.9995 40.8987 56.9995 39.9091C56.9995 38.9183 56.6167 37.9908 55.9209 37.2944L53.7055 35.0795C53.0102 34.3837 52.0816 34.0004 51.0914 34.0004C50.1017 34.0004 49.1418 34.3837 48.4465 35.0795L34.1836 49.3111L34.1836 4.09672C34.1836 2.05815 32.5877 0.447387 30.5486 0.447387L27.4166 0.447386C25.3774 0.447386 23.6206 2.05815 23.6206 4.09672L23.6206 49.4726L9.27808 35.0801C8.58172 34.3843 7.67831 34.0009 6.68812 34.0009C5.69904 34.0009 4.78245 34.3843 4.08664 35.0801L1.87837 37.295C1.182 37.9913 0.802511 38.9189 0.802511 39.9096C0.802511 40.8993 1.18694 41.8274 1.88331 42.5237L26.2781 66.9185C26.9767 67.6166 27.9092 68.0004 28.9005 67.9977C29.895 67.9999 30.8281 67.6166 31.5256 66.918Z" fill="#EC5D57"/>
<rect x="2.33252" y="0.447388" width="31.8125" height="11.125" rx="2" fill="#EC5D57"/>
</svg>
