<svg width="61" height="61" viewBox="0 0 61 61" fill="none" xmlns="http://www.w3.org/2000/svg">
<path d="M30.6016 35.561C27.7891 35.561 25.3516 33.311 25.3516 30.311C25.3516 27.4985 27.6016 25.061 30.6016 25.061C33.4141 25.061 35.8516 27.311 35.8516 30.311C35.8516 33.1235 33.4141 35.561 30.6016 35.561Z" fill="white"/>
<path fill-rule="evenodd" clip-rule="evenodd" d="M36.9766 17.561H24.2266C22.7266 17.7485 21.9766 17.936 21.4141 18.1235C20.6641 18.311 20.1016 18.686 19.5391 19.2485C19.094 19.6936 18.8837 20.1387 18.6295 20.6767C18.5625 20.8185 18.4923 20.9671 18.4141 21.1235C18.3851 21.2105 18.3516 21.3021 18.3157 21.4001C18.1195 21.936 17.8516 22.6681 17.8516 23.936V36.686C18.0391 38.186 18.2266 38.936 18.4141 39.4985C18.6016 40.2485 18.9766 40.811 19.5391 41.3735C19.9842 41.8186 20.4293 42.0289 20.9673 42.2831C21.1092 42.3502 21.2575 42.4203 21.4141 42.4985C21.5011 42.5275 21.5926 42.561 21.6907 42.5969C22.2266 42.7931 22.9586 43.061 24.2266 43.061H36.9766C38.4766 42.8735 39.2266 42.686 39.7891 42.4985C40.5391 42.311 41.1016 41.936 41.6641 41.3735C42.1092 40.9284 42.3195 40.4833 42.5736 39.9453C42.6407 39.8035 42.7108 39.655 42.7891 39.4985C42.8181 39.4115 42.8516 39.32 42.8875 39.2219C43.0836 38.686 43.3516 37.954 43.3516 36.686V23.936C43.1641 22.436 42.9766 21.686 42.7891 21.1235C42.6016 20.3735 42.2266 19.811 41.6641 19.2485C41.219 18.8034 40.7739 18.5931 40.2359 18.3389C40.0942 18.272 39.9453 18.2017 39.7891 18.1235C39.702 18.0945 39.6105 18.061 39.5125 18.0251C38.9766 17.829 38.2445 17.561 36.9766 17.561ZM30.6016 22.2485C26.1016 22.2485 22.5391 25.811 22.5391 30.311C22.5391 34.811 26.1016 38.3735 30.6016 38.3735C35.1016 38.3735 38.6641 34.811 38.6641 30.311C38.6641 25.811 35.1016 22.2485 30.6016 22.2485ZM40.7266 22.061C40.7266 23.0966 39.8871 23.936 38.8516 23.936C37.816 23.936 36.9766 23.0966 36.9766 22.061C36.9766 21.0255 37.816 20.186 38.8516 20.186C39.8871 20.186 40.7266 21.0255 40.7266 22.061Z" fill="white"/>
<path fill-rule="evenodd" clip-rule="evenodd" d="M0.601562 30.311C0.601562 13.7425 14.033 0.311035 30.6016 0.311035C47.1701 0.311035 60.6016 13.7425 60.6016 30.311C60.6016 46.8796 47.1701 60.311 30.6016 60.311C14.033 60.311 0.601562 46.8796 0.601562 30.311ZM24.2266 14.7485H36.9766C38.6641 14.936 39.7891 15.1235 40.7266 15.4985C41.8516 16.061 42.6016 16.436 43.5391 17.3735C44.4766 18.311 45.0391 19.2485 45.4141 20.186C45.7891 21.1235 46.1641 22.2485 46.1641 23.936V36.686C45.9766 38.3735 45.7891 39.4985 45.4141 40.436C44.8516 41.561 44.4766 42.311 43.5391 43.2485C42.6016 44.186 41.6641 44.7485 40.7266 45.1235C39.7891 45.4985 38.6641 45.8735 36.9766 45.8735H24.2266C22.5391 45.686 21.4141 45.4985 20.4766 45.1235C19.3516 44.561 18.6016 44.186 17.6641 43.2485C16.7266 42.311 16.1641 41.3735 15.7891 40.436C15.4141 39.4985 15.0391 38.3735 15.0391 36.686V23.936C15.2266 22.2485 15.4141 21.1235 15.7891 20.186C16.3516 19.061 16.7266 18.311 17.6641 17.3735C18.6016 16.436 19.5391 15.8735 20.4766 15.4985C21.4141 15.1235 22.5391 14.7485 24.2266 14.7485Z" fill="white"/>
</svg>
