<svg width="61" height="61" viewBox="0 0 61 61" fill="none" xmlns="http://www.w3.org/2000/svg">
<path fill-rule="evenodd" clip-rule="evenodd" d="M0.668945 30.311C0.668945 13.7425 14.1004 0.311035 30.6689 0.311035C47.2375 0.311035 60.6689 13.7425 60.6689 30.311C60.6689 46.8796 47.2375 60.311 30.6689 60.311C14.1004 60.311 0.668945 46.8796 0.668945 30.311ZM42.1064 21.8735C43.4189 21.686 44.5439 21.4985 45.6689 20.936C44.9189 22.2485 43.7939 23.3735 42.4814 24.1235C42.8564 32.936 36.4814 42.4985 25.0439 42.4985C21.6689 42.4985 18.4814 41.3735 15.6689 39.686C18.8564 40.061 22.2314 39.1235 24.4814 37.436C21.6689 37.436 19.4189 35.561 18.6689 33.1235C19.6064 33.311 20.5439 33.1235 21.4814 32.936C18.6689 32.186 16.6064 29.561 16.6064 26.7485C17.5439 27.1235 18.4814 27.4985 19.4189 27.4985C16.7939 25.6235 15.8564 22.061 17.5439 19.2485C20.7314 22.9985 25.2314 25.436 30.2939 25.6235C29.3564 21.8735 32.3564 18.1235 36.2939 18.1235C37.9814 18.1235 39.6689 18.8735 40.7939 19.9985C42.2939 19.6235 43.6064 19.2485 44.7314 18.4985C44.3564 19.9985 43.4189 21.1235 42.1064 21.8735Z" fill="white"/>
</svg>
