<svg width="61" height="61" viewBox="0 0 61 61" fill="none" xmlns="http://www.w3.org/2000/svg">
<path fill-rule="evenodd" clip-rule="evenodd" d="M0.736328 30.311C0.736328 13.7425 14.1678 0.311035 30.7363 0.311035C47.3049 0.311035 60.7363 13.7425 60.7363 30.311C60.7363 46.8796 47.3049 60.311 30.7363 60.311C14.1678 60.311 0.736328 46.8796 0.736328 30.311ZM30.7363 15.311C38.9863 15.311 45.7363 22.061 45.7363 30.311C45.7363 37.811 40.2988 44.186 32.7988 45.311V34.6235H36.3613L37.1113 30.311H32.9863V27.4985C32.9863 26.3735 33.5488 25.2485 35.4238 25.2485H37.2988V21.4985C37.2988 21.4985 35.6113 21.1235 33.9238 21.1235C30.5488 21.1235 28.2988 23.186 28.2988 26.936V30.311H24.5488V34.6235H28.2988V45.1235C21.1738 43.9985 15.7363 37.811 15.7363 30.311C15.7363 22.061 22.4863 15.311 30.7363 15.311Z" fill="white"/>
</svg>
