<?xml version="1.0" standalone="no"?>
<!DOCTYPE svg PUBLIC "-//W3C//DTD SVG 20010904//EN"
 "http://www.w3.org/TR/2001/REC-SVG-20010904/DTD/svg10.dtd">
<svg version="1.0" xmlns="http://www.w3.org/2000/svg"
 width="1178.000000pt" height="1178.000000pt" viewBox="0 0 1178.000000 1178.000000"
 preserveAspectRatio="xMidYMid meet">
<metadata>
Created by potrace 1.14, written by Peter Selinger 2001-2017
</metadata>
<g transform="translate(0.000000,1178.000000) scale(0.100000,-0.100000)"
fill="#000000" stroke="none">
<path d="M6678 8862 c-556 -2 -708 -5 -709 -15 0 -18 0 -2859 0 -2879 1 -16
55 -17 829 -13 768 3 875 5 920 19 9 3 33 8 52 11 81 13 243 70 349 123 109
54 186 116 255 202 29 36 82 139 101 195 63 188 48 441 -36 592 -39 70 -52 86
-121 153 -105 103 -322 209 -448 220 -8 0 12 11 46 24 124 46 223 113 321 216
188 197 221 540 77 786 -35 59 -131 155 -189 189 -100 59 -272 117 -473 161
-25 5 -140 14 -217 17 -27 1 -368 1 -757 -1z m664 -643 c166 -36 231 -106 232
-249 1 -129 -49 -197 -174 -242 -85 -31 -88 -31 -518 -28 l-77 0 -1 265 0 265
243 0 c142 0 264 -5 295 -11z m140 -1108 c72 -25 124 -66 154 -121 27 -50 27
-200 0 -250 -41 -76 -131 -129 -251 -148 -28 -5 -170 -8 -315 -8 l-265 1 -1
270 c0 149 1 273 3 277 2 4 140 6 306 5 285 -3 306 -4 369 -26z"/>
<path d="M2901 8530 l-1 -330 173 -1 c94 0 280 -1 412 -2 l239 -2 0 -1122 0
-1123 418 0 c327 0 418 3 419 13 0 6 1 513 2 1125 l0 1113 386 -1 c212 -1 398
-1 412 -1 l26 1 1 330 1 330 -1244 0 -1244 0 0 -330z"/>
<path d="M510 6780 c-80 -20 -148 -37 -151 -38 -3 0 -61 -15 -130 -32 -68 -18
-133 -34 -144 -36 -68 -14 -80 -20 -77 -45 2 -13 105 -429 228 -924 124 -495
229 -918 234 -940 15 -69 19 -86 35 -142 9 -29 20 -72 25 -96 9 -43 35 -149
65 -267 9 -36 18 -72 20 -80 2 -8 18 -71 35 -140 18 -69 36 -143 41 -165 5
-22 13 -58 19 -80 6 -22 12 -47 14 -55 2 -8 57 -226 121 -485 64 -258 118
-477 120 -485 2 -8 47 -188 100 -400 53 -212 99 -396 101 -410 3 -14 9 -39 15
-56 5 -17 11 -40 13 -51 3 -11 24 -101 49 -199 25 -98 48 -191 51 -207 6 -25
10 -27 39 -21 17 3 41 8 52 10 11 2 34 6 50 9 17 3 89 17 160 30 72 13 166 31
210 39 44 9 94 18 110 21 17 2 41 7 55 10 14 3 39 8 55 10 17 3 41 7 55 10 14
3 36 7 50 10 14 3 34 7 45 9 23 5 188 36 225 42 69 13 835 156 900 169 41 8
86 16 100 19 47 8 944 176 1100 206 85 16 169 32 185 35 17 2 41 7 55 10 14 3
50 9 80 15 30 6 66 12 80 15 14 3 52 10 85 15 33 6 103 20 155 30 52 11 111
22 130 25 19 3 55 10 80 15 25 5 72 14 105 20 86 15 112 19 190 35 39 8 84 16
100 19 17 3 116 21 220 41 105 20 201 38 215 40 14 2 86 16 160 30 74 14 196
37 270 51 74 14 254 47 400 75 351 66 421 80 445 83 11 2 72 13 135 25 254 49
319 61 405 76 50 10 100 19 112 21 491 93 816 153 844 158 20 3 42 8 50 10 8
3 30 7 49 10 31 5 145 26 225 41 17 3 64 12 105 20 109 20 115 21 230 43 102
20 127 25 200 37 19 3 42 8 50 10 8 2 31 7 50 10 19 3 188 35 375 70 187 35
355 67 372 70 18 3 77 14 130 24 54 11 186 36 293 55 107 20 206 38 220 41 56
11 137 27 160 31 14 2 61 11 105 19 44 8 89 17 100 19 11 2 39 7 62 11 24 4
45 10 47 13 4 7 -16 88 -82 342 -23 85 -61 234 -86 330 -51 199 -97 378 -163
630 -25 96 -47 182 -48 190 -4 14 -31 123 -116 450 -22 85 -42 162 -44 170 -2
8 -27 103 -55 210 -28 107 -52 204 -55 215 -2 11 -9 38 -15 60 -6 22 -13 49
-15 60 -18 74 -104 397 -107 401 -2 2 -26 -3 -53 -12 -28 -8 -61 -17 -75 -19
-14 -3 -50 -12 -80 -20 -30 -9 -63 -18 -73 -20 -10 -2 -27 -7 -37 -10 -10 -3
-27 -7 -37 -9 -10 -2 -56 -14 -103 -26 -47 -12 -89 -23 -95 -24 -10 -3 -88
-24 -116 -32 -14 -4 -12 -20 18 -132 19 -70 36 -138 39 -152 3 -14 21 -83 40
-155 20 -71 37 -137 39 -145 10 -47 74 -296 109 -427 20 -73 38 -143 40 -155
3 -13 37 -144 76 -293 39 -148 73 -277 75 -285 2 -8 22 -87 45 -175 23 -88 46
-176 50 -195 5 -19 19 -74 31 -122 13 -48 20 -90 17 -93 -3 -3 -18 -8 -34 -11
-28 -4 -211 -38 -264 -48 -14 -3 -50 -10 -80 -16 -30 -6 -68 -13 -85 -16 -28
-4 -138 -25 -395 -74 -63 -12 -124 -23 -135 -25 -18 -2 -152 -27 -215 -40 -14
-3 -38 -8 -55 -10 -16 -3 -37 -8 -45 -10 -8 -2 -33 -6 -55 -10 -22 -3 -47 -7
-55 -10 -8 -2 -31 -6 -50 -9 -19 -3 -46 -8 -60 -11 -14 -3 -36 -7 -50 -10 -14
-3 -50 -9 -80 -15 -30 -6 -66 -12 -80 -15 -14 -3 -52 -10 -85 -16 -33 -5 -118
-21 -190 -35 -71 -13 -166 -31 -210 -39 -44 -9 -91 -18 -105 -20 -14 -3 -50
-9 -80 -15 -30 -6 -66 -12 -80 -15 -53 -10 -246 -47 -270 -51 -52 -9 -297 -55
-340 -64 -44 -9 -730 -138 -780 -146 -14 -3 -48 -9 -76 -15 -28 -5 -64 -12
-80 -15 -16 -2 -52 -9 -80 -15 -28 -5 -64 -12 -80 -14 -16 -3 -49 -10 -74 -15
-39 -8 -103 -20 -200 -36 -25 -4 -102 -19 -150 -29 -14 -3 -36 -7 -50 -9 -14
-2 -83 -16 -155 -30 -71 -13 -146 -28 -165 -31 -57 -10 -84 -14 -110 -20 -14
-3 -38 -7 -55 -10 -25 -4 -57 -11 -95 -20 -3 -1 -30 -5 -60 -10 -30 -5 -57 -9
-60 -10 -41 -10 -71 -16 -100 -20 -19 -3 -80 -14 -135 -25 -55 -11 -116 -22
-135 -25 -19 -3 -42 -8 -51 -11 -10 -2 -31 -6 -49 -9 -17 -2 -43 -6 -58 -10
-15 -3 -36 -7 -47 -9 -52 -10 -193 -36 -218 -40 -15 -3 -35 -7 -45 -10 -9 -3
-35 -7 -57 -11 -22 -3 -47 -7 -55 -10 -8 -2 -33 -6 -54 -10 -21 -3 -48 -7 -60
-10 -12 -3 -33 -7 -49 -9 -15 -3 -35 -7 -45 -10 -9 -3 -33 -7 -52 -10 -46 -7
-63 -11 -275 -51 -99 -19 -198 -37 -220 -40 -22 -4 -56 -10 -75 -15 -19 -5
-51 -11 -70 -14 -19 -3 -84 -15 -145 -26 -60 -12 -121 -23 -135 -26 -14 -3
-86 -16 -160 -30 -74 -14 -146 -28 -160 -30 -14 -3 -86 -16 -160 -30 -74 -15
-146 -28 -160 -30 -26 -5 -115 -21 -160 -30 -14 -3 -146 -28 -295 -55 -148
-28 -315 -59 -370 -69 -55 -10 -103 -16 -106 -12 -5 5 -329 1289 -344 1365 -2
10 -7 27 -10 37 -3 10 -7 27 -10 37 -7 39 -76 320 -84 348 -5 17 -19 71 -31
120 -12 50 -24 97 -26 105 -2 8 -8 35 -15 60 -6 25 -12 52 -14 60 -3 8 -15 60
-29 115 -13 55 -26 107 -30 115 -3 8 -7 26 -10 40 -2 14 -18 81 -36 150 -17
69 -33 132 -35 140 -5 23 -24 101 -35 140 -12 41 -59 233 -66 270 -3 14 -8 34
-11 45 -4 11 -8 25 -9 30 -1 6 -63 258 -139 560 -75 303 -138 557 -140 565 -2
8 -18 72 -35 143 -25 99 -36 127 -49 126 -9 -1 -81 -18 -161 -39z"/>
</g>
</svg>
