<svg width="99" height="54" viewBox="0 0 99 54" fill="none" xmlns="http://www.w3.org/2000/svg">
<path d="M19.6557 3.27718H16.3434V12.352H12.9876V3.27718H9.67529V0.602966H19.6557V3.27718Z" fill="#EFF9F6"/>
<path d="M20.876 0.602966H24.2318V5.07461H27.9799V0.602966H31.3358V12.352H27.9799V7.88034H24.2318V12.352H20.876V0.602966Z" fill="#EFF9F6"/>
<path d="M32.7305 0.602966H41.4034V3.27718H36.1299V5.07461H41.0547V7.6173H36.1299V9.67776H41.7085V12.352H32.7305V0.602966Z" fill="#EFF9F6"/>
<path d="M42.275 12.352L46.0667 0.602966H49.9891L53.9115 12.352H50.4249L49.9019 10.423H46.1974L45.6744 12.352H42.275ZM46.8076 8.09954H49.2482L47.9843 3.67174L46.8076 8.09954Z" fill="#EFF9F6"/>
<path d="M62.846 3.27718H59.5337V12.352H56.1778V3.27718H52.8656V0.602966H62.846V3.27718Z" fill="#EFF9F6"/>
<path d="M69.2962 8.45025C69.1654 8.40641 68.9475 8.36258 68.686 8.36258H67.4221V12.3081H64.0663V0.602966H69.4705C70.9959 0.602966 72.129 0.866004 72.9571 1.43592C73.7416 2.00583 74.1338 2.83879 74.1338 3.93478C74.1338 4.76773 73.8723 5.513 73.3057 6.08292C72.7392 6.65283 71.9983 7.00355 70.9959 7.17891V7.22275C71.6496 7.35427 72.1726 7.6173 72.4777 7.92418C72.7828 8.23106 73.0442 8.80097 73.2622 9.63392C73.4801 10.4669 73.6544 11.0368 73.7416 11.3437C73.8287 11.6505 73.9595 11.9574 74.0902 12.2643V12.352H70.6036C70.56 12.2205 70.5165 12.0889 70.4729 11.9136C70.4293 11.7382 70.3421 11.1683 70.1678 10.2477C70.0806 9.7216 69.9935 9.37089 69.9499 9.15169C69.9063 8.93249 69.7756 8.80097 69.6884 8.66945C69.5576 8.58177 69.4269 8.49409 69.2962 8.45025ZM70.255 3.54022C69.9499 3.32102 69.5141 3.23334 68.9039 3.23334H67.4221V6.08292H68.9475C69.5141 6.08292 69.9499 5.9514 70.255 5.7322C70.56 5.46916 70.6908 5.11844 70.6908 4.63621C70.6908 4.06629 70.56 3.75942 70.255 3.54022Z" fill="#EFF9F6"/>
<path d="M75.2234 0.602966H83.8527V3.27718H78.5793V5.07461H83.5041V7.6173H78.5793V9.67776H84.1578V12.352H75.2234V0.602966Z" fill="#EFF9F6"/>
<path d="M15.1667 25.9423V14.1933H20.5274C22.0092 14.1933 23.0987 14.4124 23.8396 14.8947C24.5805 15.3769 24.9292 16.0784 24.9292 17.0428C24.9292 17.7004 24.7549 18.2703 24.3626 18.7087C23.9704 19.191 23.4474 19.5417 22.7065 19.7609V19.8047C23.5781 19.9801 24.2319 20.287 24.7113 20.7692C25.1907 21.2514 25.4086 21.8652 25.4086 22.5666C25.4086 23.6626 25.0164 24.4956 24.2319 25.0655C23.4474 25.6354 22.3143 25.8984 20.7889 25.8984H15.1667V25.9423ZM21.2247 16.999C20.9632 16.8236 20.571 16.7359 20.048 16.7359H18.5226V18.8841H20.0915C20.6145 18.8841 21.0068 18.7964 21.2247 18.6211C21.4862 18.4457 21.5733 18.1827 21.5733 17.7881C21.6169 17.4374 21.4862 17.1743 21.2247 16.999ZM21.5733 21.4268C21.3119 21.2514 20.876 21.1638 20.2659 21.1638H18.5226V23.3996H20.353C20.9196 23.3996 21.3119 23.3119 21.5733 23.1365C21.8348 22.9612 21.9656 22.6543 21.9656 22.2597C21.9656 21.8652 21.8348 21.6021 21.5733 21.4268Z" fill="#EFF9F6"/>
<path d="M31.7281 22.0405C31.5973 21.9967 31.3794 21.9529 31.1179 21.9529H29.854V25.8984H26.4982V14.1933H31.9024C33.4278 14.1933 34.5609 14.4563 35.389 15.0262C36.1735 15.5961 36.5657 16.4291 36.5657 17.5251C36.5657 18.358 36.3042 19.1033 35.7377 19.6732C35.1711 20.2431 34.4302 20.5938 33.4278 20.7692V20.813C34.0815 20.9446 34.6045 21.2076 34.9096 21.5145C35.2147 21.8652 35.4762 22.3913 35.6941 23.2242C35.912 24.0572 36.0863 24.6271 36.1735 24.934C36.2606 25.2408 36.3914 25.5477 36.5221 25.8546V25.9423H33.0355C32.992 25.8107 32.9484 25.6792 32.9048 25.5039C32.8612 25.3285 32.7741 24.7586 32.5997 23.838C32.5126 23.3119 32.4254 22.9612 32.3818 22.742C32.2946 22.5228 32.2075 22.3913 32.1203 22.2597C31.9896 22.1721 31.8588 22.0844 31.7281 22.0405ZM32.6869 17.1305C32.3818 16.9113 31.946 16.8236 31.3358 16.8236H29.854V19.6732H31.3794C31.946 19.6732 32.3818 19.5417 32.6869 19.3225C32.992 19.0594 33.1227 18.7087 33.1227 18.2265C33.1227 17.7004 32.992 17.3497 32.6869 17.1305Z" fill="#EFF9F6"/>
<path d="M37.6989 14.1933H41.0547V25.9423H37.6989V14.1933Z" fill="#EFF9F6"/>
<path d="M52.0375 20.9446C52.1682 21.3391 52.2554 21.7775 52.2554 22.2597C52.2554 23.4873 51.8196 24.4517 50.9479 25.1532C50.0763 25.8546 48.8559 26.2053 47.3306 26.2053C45.8488 26.2053 44.6285 25.9423 43.7132 25.3724C42.798 24.8024 42.1878 23.9695 41.9263 22.8735L45.0643 22.0406C45.195 22.5666 45.4565 22.9173 45.8488 23.1804C46.241 23.4434 46.764 23.5749 47.3741 23.5749C47.8536 23.5749 48.2458 23.4873 48.5073 23.3119C48.7688 23.1365 48.8995 22.8735 48.8995 22.5228C48.8995 22.2597 48.7688 22.0844 48.5509 21.9529C48.333 21.8214 47.81 21.6898 46.9819 21.5583C46.4153 21.4706 45.9359 21.383 45.6308 21.2953C45.3258 21.2076 45.0207 21.1638 44.7156 21.0322C44.4105 20.9446 44.1055 20.813 43.8875 20.6815C43.6261 20.55 43.4517 20.3746 43.2338 20.1993C42.9287 19.8924 42.7108 19.5855 42.5801 19.191C42.4493 18.8403 42.3622 18.4019 42.3622 17.9196C42.3622 16.6921 42.798 15.7276 43.6696 15.0262C44.5413 14.3248 45.718 13.9302 47.1562 13.9302C48.4637 13.9302 49.5097 14.2371 50.3813 14.807C51.2094 15.3769 51.8196 16.2099 52.1246 17.3059L49.0739 17.9635C48.9431 17.4812 48.7252 17.0867 48.4201 16.8675C48.115 16.6483 47.6792 16.5168 47.1562 16.5168C46.7204 16.5168 46.3717 16.6044 46.1103 16.7798C45.8488 16.9552 45.718 17.2182 45.718 17.5689C45.718 17.8319 45.8488 18.0511 46.0667 18.2265C46.3282 18.358 46.8076 18.4895 47.5921 18.6211C48.333 18.7526 48.8559 18.8403 49.1174 18.8841C49.3789 18.9279 49.6404 19.0156 49.9019 19.0595C50.207 19.1471 50.5121 19.2787 50.73 19.4102C50.9915 19.5417 51.1658 19.7171 51.3402 19.8924C51.6888 20.2431 51.8631 20.55 52.0375 20.9446Z" fill="#EFF9F6"/>
<path d="M62.7152 16.8675H59.4029V25.9423H56.0471V16.8675H52.7348V14.1933H62.7152V16.8675Z" fill="#EFF9F6"/>
<path d="M64.5457 24.5832C63.5433 23.5311 63.0203 22.0844 63.0203 20.2431C63.0203 18.3142 63.5433 16.7798 64.5457 15.64C65.5917 14.5001 66.9427 13.9302 68.686 13.9302C70.3858 13.9302 71.7368 14.4563 72.7392 15.5523C73.7416 16.6483 74.2646 18.095 74.2646 19.9362C74.2646 21.8213 73.7416 23.3119 72.7392 24.4517C71.7368 25.5477 70.3858 26.1176 68.686 26.1176C66.9427 26.1615 65.5917 25.6354 64.5457 24.5832ZM70.6908 21.5145C70.778 21.1199 70.8216 20.6377 70.8216 20.1116C70.8216 19.0595 70.6473 18.2703 70.2986 17.7004C69.9499 17.1305 69.4269 16.8675 68.7296 16.8675C68.381 16.8675 68.0759 16.9552 67.8144 17.0867C67.5529 17.2182 67.2914 17.4374 67.1171 17.7004C66.9427 17.9635 66.7684 18.3142 66.6812 18.7087C66.5941 19.1033 66.5505 19.5855 66.5505 20.1116C66.5505 21.1199 66.7248 21.8652 67.1171 22.4351C67.5093 23.005 68.0323 23.2681 68.7296 23.2681C69.0783 23.2681 69.3398 23.2242 69.6013 23.0927C69.8628 22.9612 70.0807 22.7858 70.255 22.5228C70.4293 22.2597 70.5601 21.9529 70.6908 21.5145Z" fill="#EFF9F6"/>
<path d="M75.4848 14.1933H78.8407V23.1365H84.3321V25.9423H75.4848V14.1933Z" fill="#EFF9F6"/>
<path d="M10.6341 53.2981L0 10.423L3.2251 9.6339L13.0747 49.4841L94.4432 34.0964L89.2133 13.711L92.3949 12.9219L98.54 36.7268L10.6341 53.2981Z" fill="#EFF9F6"/>
</svg>
