<svg width="99" height="54" viewBox="0 0 99 54" fill="none" xmlns="http://www.w3.org/2000/svg">
<path d="M19.9056 3.27718H16.5934V12.352H13.2375V3.27718H9.92523V0.602966H19.9056V3.27718Z" fill="#003333"/>
<path d="M21.1258 0.602966H24.4816V5.0746H28.2297V0.602966H31.5856V12.352H28.2297V7.88034H24.4816V12.352H21.1258V0.602966Z" fill="#003333"/>
<path d="M32.9807 0.602966H41.6536V3.27718H36.3801V5.0746H41.3049V7.6173H36.3801V9.67776H41.9586V12.352H32.9807V0.602966Z" fill="#003333"/>
<path d="M42.525 12.352L46.3167 0.602966H50.2391L54.1615 12.352H50.6749L50.152 10.423H46.4474L45.9245 12.352H42.525ZM47.0576 8.09954H49.4982L48.2343 3.67174L47.0576 8.09954Z" fill="#003333"/>
<path d="M63.0961 3.27718H59.7838V12.352H56.4279V3.27718H53.1157V0.602966H63.0961V3.27718Z" fill="#003333"/>
<path d="M69.5462 8.45025C69.4154 8.40641 69.1975 8.36258 68.936 8.36258H67.6721V12.3081H64.3163V0.602966H69.7205C71.2459 0.602966 72.379 0.866004 73.2071 1.43592C73.9916 2.00583 74.3838 2.83879 74.3838 3.93478C74.3838 4.76773 74.1223 5.513 73.5558 6.08292C72.9892 6.65283 72.2483 7.00355 71.2459 7.17891V7.22275C71.8996 7.35426 72.4226 7.6173 72.7277 7.92418C73.0328 8.23106 73.2943 8.80097 73.5122 9.63392C73.7301 10.4669 73.9044 11.0368 73.9916 11.3437C74.0788 11.6505 74.2095 11.9574 74.3403 12.2643V12.352H70.8537C70.8101 12.2205 70.7665 12.0889 70.7229 11.9136C70.6793 11.7382 70.5922 11.1683 70.4178 10.2477C70.3307 9.7216 70.2435 9.37089 70.1999 9.15169C70.1563 8.93249 70.0256 8.80097 69.9384 8.66945C69.8077 8.58177 69.6769 8.49409 69.5462 8.45025ZM70.505 3.54022C70.1999 3.32102 69.7641 3.23334 69.1539 3.23334H67.6721V6.08292H69.1975C69.7641 6.08292 70.1999 5.9514 70.505 5.7322C70.8101 5.46916 70.9408 5.11844 70.9408 4.63621C70.9408 4.06629 70.8101 3.75942 70.505 3.54022Z" fill="#003333"/>
<path d="M75.4736 0.602966H84.1029V3.27718H78.8294V5.0746H83.7542V7.6173H78.8294V9.67776H84.408V12.352H75.4736V0.602966Z" fill="#003333"/>
<path d="M15.4168 25.9423V14.1932H20.7775C22.2593 14.1932 23.3488 14.4124 24.0897 14.8947C24.8306 15.3769 25.1793 16.0783 25.1793 17.0428C25.1793 17.7004 25.005 18.2703 24.6127 18.7087C24.2205 19.191 23.6975 19.5417 22.9566 19.7609V19.8047C23.8282 19.9801 24.482 20.2869 24.9614 20.7692C25.4408 21.2514 25.6587 21.8652 25.6587 22.5666C25.6587 23.6626 25.2664 24.4955 24.482 25.0655C23.6975 25.6354 22.5643 25.8984 21.0389 25.8984H15.4168V25.9423ZM21.4748 16.999C21.2133 16.8236 20.821 16.7359 20.298 16.7359H18.7727V18.8841H20.3416C20.8646 18.8841 21.2569 18.7964 21.4748 18.621C21.7363 18.4457 21.8234 18.1826 21.8234 17.7881C21.867 17.4374 21.7363 17.1743 21.4748 16.999ZM21.8234 21.4268C21.5619 21.2514 21.1261 21.1637 20.516 21.1637H18.7727V23.3996H20.6031C21.1697 23.3996 21.5619 23.3119 21.8234 23.1365C22.0849 22.9612 22.2157 22.6543 22.2157 22.2597C22.2157 21.8652 22.0849 21.6021 21.8234 21.4268Z" fill="#003333"/>
<path d="M31.9782 22.0405C31.8474 21.9967 31.6295 21.9528 31.368 21.9528H30.1041V25.8984H26.7483V14.1932H32.1525C33.6779 14.1932 34.8111 14.4563 35.6391 15.0262C36.4236 15.5961 36.8158 16.4291 36.8158 17.525C36.8158 18.358 36.5544 19.1033 35.9878 19.6732C35.4212 20.2431 34.6803 20.5938 33.6779 20.7692V20.813C34.3316 20.9445 34.8546 21.2076 35.1597 21.5145C35.4648 21.8652 35.7263 22.3912 35.9442 23.2242C36.1621 24.0571 36.3364 24.6271 36.4236 24.9339C36.5108 25.2408 36.6415 25.5477 36.7723 25.8546V25.9423H33.2857C33.2421 25.8107 33.1985 25.6792 33.1549 25.5039C33.1113 25.3285 33.0242 24.7586 32.8498 23.8379C32.7627 23.3119 32.6755 22.9612 32.6319 22.742C32.5448 22.5228 32.4576 22.3912 32.3704 22.2597C32.2397 22.172 32.1089 22.0844 31.9782 22.0405ZM32.937 17.1305C32.6319 16.9113 32.1961 16.8236 31.5859 16.8236H30.1041V19.6732H31.6295C32.1961 19.6732 32.6319 19.5417 32.937 19.3225C33.2421 19.0594 33.3728 18.7087 33.3728 18.2265C33.3728 17.7004 33.2421 17.3497 32.937 17.1305Z" fill="#003333"/>
<path d="M37.9489 14.1932H41.3047V25.9423H37.9489V14.1932Z" fill="#003333"/>
<path d="M52.2874 20.9446C52.4181 21.3392 52.5053 21.7776 52.5053 22.2598C52.5053 23.4873 52.0695 24.4518 51.1978 25.1532C50.3262 25.8547 49.1059 26.2054 47.5805 26.2054C46.0987 26.2054 44.8784 25.9423 43.9632 25.3724C43.0479 24.8025 42.4378 23.9696 42.1763 22.8736L45.3142 22.0406C45.445 22.5667 45.7064 22.9174 46.0987 23.1804C46.4909 23.4435 47.0139 23.575 47.6241 23.575C48.1035 23.575 48.4957 23.4873 48.7572 23.312C49.0187 23.1366 49.1495 22.8736 49.1495 22.5228C49.1495 22.2598 49.0187 22.0844 48.8008 21.9529C48.5829 21.8214 48.0599 21.6899 47.2318 21.5584C46.6653 21.4707 46.1859 21.383 45.8808 21.2953C45.5757 21.2077 45.2706 21.1638 44.9655 21.0323C44.6605 20.9446 44.3554 20.8131 44.1375 20.6816C43.876 20.5501 43.7017 20.3747 43.4837 20.1993C43.1787 19.8925 42.9608 19.5856 42.83 19.191C42.6993 18.8403 42.6121 18.4019 42.6121 17.9197C42.6121 16.6922 43.0479 15.7277 43.9196 15.0263C44.7912 14.3248 45.9679 13.9303 47.4062 13.9303C48.7136 13.9303 49.7596 14.2372 50.6313 14.8071C51.4593 15.377 52.0695 16.2099 52.3746 17.3059L49.3238 17.9635C49.193 17.4813 48.9751 17.0867 48.6701 16.8675C48.365 16.6483 47.9292 16.5168 47.4062 16.5168C46.9703 16.5168 46.6217 16.6045 46.3602 16.7799C46.0987 16.9552 45.9679 17.2183 45.9679 17.569C45.9679 17.832 46.0987 18.0512 46.3166 18.2266C46.5781 18.3581 47.0575 18.4896 47.842 18.6211C48.5829 18.7526 49.1059 18.8403 49.3674 18.8842C49.6289 18.928 49.8904 19.0157 50.1519 19.0595C50.4569 19.1472 50.762 19.2787 50.9799 19.4102C51.2414 19.5418 51.4158 19.7171 51.5901 19.8925C51.9387 20.2432 52.1131 20.5501 52.2874 20.9446Z" fill="#003333"/>
<path d="M62.9652 16.8675H59.6529V25.9423H56.2971V16.8675H52.9848V14.1932H62.9652V16.8675Z" fill="#003333"/>
<path d="M64.7959 24.5833C63.7935 23.5312 63.2705 22.0844 63.2705 20.2432C63.2705 18.3142 63.7935 16.7799 64.7959 15.64C65.8419 14.5002 67.1929 13.9303 68.9362 13.9303C70.6359 13.9303 71.987 14.4564 72.9894 15.5523C73.9918 16.6483 74.5148 18.095 74.5148 19.9363C74.5148 21.8214 73.9918 23.312 72.9894 24.4518C71.987 25.5478 70.6359 26.1177 68.9362 26.1177C67.1929 26.1615 65.8419 25.6355 64.7959 24.5833ZM70.941 21.5145C71.0282 21.12 71.0718 20.6377 71.0718 20.1117C71.0718 19.0595 70.8974 18.2704 70.5488 17.7005C70.2001 17.1306 69.6771 16.8675 68.9798 16.8675C68.6312 16.8675 68.3261 16.9552 68.0646 17.0867C67.8031 17.2183 67.5416 17.4375 67.3673 17.7005C67.1929 17.9635 67.0186 18.3142 66.9314 18.7088C66.8443 19.1034 66.8007 19.5856 66.8007 20.1117C66.8007 21.12 66.975 21.8653 67.3673 22.4352C67.7595 23.0051 68.2825 23.2681 68.9798 23.2681C69.3285 23.2681 69.59 23.2243 69.8515 23.0928C70.113 22.9612 70.3309 22.7859 70.5052 22.5228C70.6795 22.2598 70.8103 21.9529 70.941 21.5145Z" fill="#003333"/>
<path d="M75.7347 14.1932H79.0906V23.1365H84.582V25.9423H75.7347V14.1932Z" fill="#003333"/>
<path d="M10.8841 53.2981L0.25 10.423L3.4751 9.63385L13.3247 49.484L94.6932 34.0963L89.4633 13.7109L92.6449 12.9218L98.79 36.7267L10.8841 53.2981Z" fill="#003333"/>
</svg>
